<svg width="15" height="20" viewBox="0 0 500 500" fill="none" xmlns="http://www.w3.org/2000/svg">
<g clip-path="url(#clip0_1_249)">
<path d="M500 0H0V500H500V0Z" fill="white"/>
<path d="M371.234 352.138L489.833 274.817C496.115 270.72 500 263.106 500 254.912V100.291C500 92.1162 496.097 84.4828 489.833 80.3858L371.234 3.06547C364.953 -1.03148 357.165 -1.01216 350.883 3.06547L232.285 80.3858C226.003 84.4828 222.118 92.1162 222.118 100.291V376.623L138.95 430.83L55.7819 376.623V268.189L138.95 213.981L193.807 249.733V176.993L149.117 147.87C146.036 145.86 142.51 144.797 138.933 144.797C135.355 144.797 131.829 145.86 128.766 147.87L10.167 225.19C3.88538 229.287 0 236.901 0 245.095V399.716C0 407.891 3.9025 415.524 10.167 419.621L128.766 496.942C135.03 501.019 142.835 501.019 149.117 496.942L267.715 419.641C273.997 415.544 277.882 407.91 277.882 399.736V123.404L279.389 122.438L361.05 69.1965L444.218 123.404V231.838L361.05 286.045L306.278 250.332V323.072L350.883 352.157C357.165 356.235 364.953 356.235 371.234 352.157V352.138Z" fill="url(#paint0_linear_1_249)"/>
</g>
<defs>
<linearGradient id="paint0_linear_1_249" x1="42.4825" y1="420.839" x2="506.993" y2="120.848" gradientUnits="userSpaceOnUse">
<stop stop-color="#A726C1"/>
<stop offset="0.88" stop-color="#803BDF"/>
<stop offset="1" stop-color="#7B3FE4"/>
</linearGradient>
<clipPath id="clip0_1_249">
<rect width="500" height="500" fill="white"/>
</clipPath>
</defs>
</svg>
